Santa Buddies (2009) MPEG-4 (IPOD)



Verenigde Staten / Canada
Familie / Komedie

geregisseerd door Robert Vince
met George Wendt, Christopher Lloyd en Danny Woodburn

Nederlands:
Puppy Paws, het zoontje van Santa Paws, 
is de Noordpool nogal zat en gaat op zoek naar andere hondjes, 
zodat hij kan leren om normaal te zijn en hij ontmoet Budderball. 
Maar dan begint de magische kerst ijspegel te smelten en mensen vergeten 
langzaam maar zeker de echte gedachte rondom deze feestdagen. 
Het is nu aan Puppy Paws en zijn nieuwe vriendjes om kerst te redden.

Engels:
The buddies are off on a jolly new adventure when Puppy Paws,
pup of the legendary Santa Paws, and his friends travel to
the North Pole to save Christmas from disaster.


Audio : English
Subs  : Dutch (hardcoded)
Bron : Santa Buddies (2009) NTSC dvd5
[code]
Format                           : MPEG-4
Format profile                   : Base Media
Codec ID                         : isom
File size                        : 1.01 GiB
Duration                         : 1h 28mn
Overall bit rate                 : 1 632 Kbps


Video
ID                               : 1
Format                           : MPEG-4 Visual
Format profile                   : Simple@L1
Format settings, BVOP            : No
Format settings, QPel            : No
Format settings, GMC             : No warppoints
Format settings, Matrix          : Default (H.263)
Codec ID                         : 20
Duration                         : 1h 28mn
Bit rate mode                    : Variable
Bit rate                         : 1 500 Kbps
Width                            : 720 pixels
Height                           : 406 pixels
Display aspect ratio             : 16/9
Frame rate mode                  : Constant
Frame rate                       : 23.976 fps
Resolution                       : 24 bits
Colorimetry                      : 4:2:0
Scan type                        : Progressive
Bits/(Pixel*Frame)               : 0.214
Stream size                      : 949 MiB (92%)
Writing library                  : Lavc51.40.4

Audio
ID                               : 2
Format                           : AAC
Format/Info                      : Advanced Audio Codec
Format version                   : Version 4
Format profile                   : LC
Format settings, SBR             : No
Codec ID                         : 40
Duration                         : 1h 28mn
Bit rate mode                    : Variable
Bit rate                         : 128 Kbps
Channel(s)                       : 2 channels
Channel positions                : L R
Sampling rate                    : 48.0 KHz
Resolution                       : 16 bits
Stream size                      : 81.0 MiB (8%)[/code]
 
http://moviemeter.nl/film/57945 
http://www.imdb.com/title/tt1328875

[b]***************************************** 

Brought to you by 
Pioen 
2Lions Team 



meer zien?? 
Kom dan eens kijken op ons forum 
        
http://www.2lions.ons-forum.nl 
2Lions-Team for all your Dutch MOVIES and more 

*****************************************

DON T HIT AND RUN Niet gelijk afhaken als de film binnen is blijf seeden.